<mxfile host="app.diagrams.net" modified="2020-12-10T08:54:51.258Z" agent="5.0 (Windows NT 10.0; Win64; x64) AppleWebKit/537.36 (KHTML, like Gecko) Chrome/87.0.4280.88 Safari/537.36" etag="2SDNcSRs8UycmwUi1I5Y" version="14.0.0" type="github">
  <diagram id="-FGuVL1HZpaCO7P0Zi35" name="Page-1">
    <mxGraphModel dx="786" dy="695" grid="1" gridSize="10" guides="1" tooltips="1" connect="1" arrows="1" fold="1" page="1" pageScale="1" pageWidth="850" pageHeight="1100" math="0" shadow="0">
      <root>
        <mxCell id="0" />
        <mxCell id="1" parent="0" />
        <mxCell id="Mu3qTkLptVEvgx8VNotA-1" value="workItemController.java" style="shape=process;whiteSpace=wrap;html=1;backgroundOutline=1;" vertex="1" parent="1">
          <mxGeometry x="120" y="320" width="240" height="120" as="geometry" />
        </mxCell>
        <mxCell id="Mu3qTkLptVEvgx8VNotA-2" value="workItemList.ftl" style="rounded=0;whiteSpace=wrap;html=1;" vertex="1" parent="1">
          <mxGeometry x="120" y="80" width="240" height="120" as="geometry" />
        </mxCell>
        <mxCell id="Mu3qTkLptVEvgx8VNotA-3" value="workItemEdit.ftl" style="rounded=0;whiteSpace=wrap;html=1;" vertex="1" parent="1">
          <mxGeometry x="120" y="800" width="240" height="120" as="geometry" />
        </mxCell>
        <mxCell id="Mu3qTkLptVEvgx8VNotA-4" value="&lt;font style=&quot;font-size: 20px&quot;&gt;&lt;b&gt;&lt;font style=&quot;font-size: 20px&quot;&gt;データ編集画面→&lt;/font&gt;ワークアイテム一覧画面&lt;/b&gt;&lt;/font&gt;" style="text;html=1;strokeColor=none;fillColor=none;align=center;verticalAlign=middle;whiteSpace=wrap;rounded=0;" vertex="1" parent="1">
          <mxGeometry x="760" y="20" width="400" height="20" as="geometry" />
        </mxCell>
        <mxCell id="Mu3qTkLptVEvgx8VNotA-5" value="&lt;font style=&quot;font-size: 20px&quot;&gt;&lt;b&gt;ワークアイテム一覧画面→データ編集画面&lt;/b&gt;&lt;/font&gt;" style="text;html=1;strokeColor=none;fillColor=none;align=center;verticalAlign=middle;whiteSpace=wrap;rounded=0;" vertex="1" parent="1">
          <mxGeometry y="20" width="400" height="20" as="geometry" />
        </mxCell>
        <mxCell id="Mu3qTkLptVEvgx8VNotA-6" value="DataEditingController.java" style="shape=process;whiteSpace=wrap;html=1;backgroundOutline=1;" vertex="1" parent="1">
          <mxGeometry x="120" y="560" width="240" height="120" as="geometry" />
        </mxCell>
        <mxCell id="Mu3qTkLptVEvgx8VNotA-7" value="component.ftl" style="rounded=0;whiteSpace=wrap;html=1;" vertex="1" parent="1">
          <mxGeometry x="880" y="320" width="240" height="120" as="geometry" />
        </mxCell>
        <mxCell id="Mu3qTkLptVEvgx8VNotA-8" value="Label" style="endArrow=classic;html=1;exitX=0.25;exitY=1;exitDx=0;exitDy=0;entryX=0.25;entryY=0;entryDx=0;entryDy=0;" edge="1" parent="1" source="Mu3qTkLptVEvgx8VNotA-2" target="Mu3qTkLptVEvgx8VNotA-1">
          <mxGeometry relative="1" as="geometry">
            <mxPoint x="170" y="240" as="sourcePoint" />
            <mxPoint x="330" y="240" as="targetPoint" />
          </mxGeometry>
        </mxCell>
        <mxCell id="Mu3qTkLptVEvgx8VNotA-9" value="href=&quot;${rc.getContextPath()}/workItem/showDetail?workItemId&lt;br&gt;=${workItem.workitemId!&quot;&quot;}&quot;" style="edgeLabel;resizable=0;html=1;align=center;verticalAlign=middle;" connectable="0" vertex="1" parent="Mu3qTkLptVEvgx8VNotA-8">
          <mxGeometry relative="1" as="geometry" />
        </mxCell>
        <mxCell id="Mu3qTkLptVEvgx8VNotA-10" value="編集アイコン押下" style="edgeLabel;resizable=0;html=1;align=left;verticalAlign=bottom;" connectable="0" vertex="1" parent="Mu3qTkLptVEvgx8VNotA-8">
          <mxGeometry x="-1" relative="1" as="geometry" />
        </mxCell>
        <mxCell id="Mu3qTkLptVEvgx8VNotA-11" value="showDetailメソッド呼出" style="edgeLabel;resizable=0;html=1;align=right;verticalAlign=bottom;" connectable="0" vertex="1" parent="Mu3qTkLptVEvgx8VNotA-8">
          <mxGeometry x="1" relative="1" as="geometry" />
        </mxCell>
        <mxCell id="Mu3qTkLptVEvgx8VNotA-12" value="Label" style="endArrow=classic;html=1;exitX=0.25;exitY=1;exitDx=0;exitDy=0;entryX=0.25;entryY=0;entryDx=0;entryDy=0;" edge="1" parent="1" source="Mu3qTkLptVEvgx8VNotA-1" target="Mu3qTkLptVEvgx8VNotA-6">
          <mxGeometry relative="1" as="geometry">
            <mxPoint x="40" y="520" as="sourcePoint" />
            <mxPoint x="200" y="520" as="targetPoint" />
            <Array as="points" />
          </mxGeometry>
        </mxCell>
        <mxCell id="Mu3qTkLptVEvgx8VNotA-13" value="&lt;div style=&quot;text-align: left&quot;&gt;redirectToList(&quot;workItem/edit?workItemId=&quot; + workItemId);&lt;/div&gt;" style="edgeLabel;resizable=0;html=1;align=center;verticalAlign=middle;" connectable="0" vertex="1" parent="Mu3qTkLptVEvgx8VNotA-12">
          <mxGeometry relative="1" as="geometry" />
        </mxCell>
        <mxCell id="Mu3qTkLptVEvgx8VNotA-14" value="showDetailメソッドの実行" style="edgeLabel;resizable=0;html=1;align=left;verticalAlign=bottom;" connectable="0" vertex="1" parent="Mu3qTkLptVEvgx8VNotA-12">
          <mxGeometry x="-1" relative="1" as="geometry" />
        </mxCell>
        <mxCell id="Mu3qTkLptVEvgx8VNotA-15" value="showEditメソッド呼出" style="edgeLabel;resizable=0;html=1;align=right;verticalAlign=bottom;" connectable="0" vertex="1" parent="Mu3qTkLptVEvgx8VNotA-12">
          <mxGeometry x="1" relative="1" as="geometry" />
        </mxCell>
        <mxCell id="Mu3qTkLptVEvgx8VNotA-16" value="Label" style="endArrow=classic;html=1;exitX=0.25;exitY=1;exitDx=0;exitDy=0;entryX=0.25;entryY=0;entryDx=0;entryDy=0;" edge="1" parent="1" source="Mu3qTkLptVEvgx8VNotA-6" target="Mu3qTkLptVEvgx8VNotA-3">
          <mxGeometry relative="1" as="geometry">
            <mxPoint x="530" y="640" as="sourcePoint" />
            <mxPoint x="650" y="840" as="targetPoint" />
            <Array as="points" />
          </mxGeometry>
        </mxCell>
        <mxCell id="Mu3qTkLptVEvgx8VNotA-17" value="&lt;div style=&quot;text-align: left&quot;&gt;return EDIT_SCREEN;&lt;/div&gt;" style="edgeLabel;resizable=0;html=1;align=center;verticalAlign=middle;" connectable="0" vertex="1" parent="Mu3qTkLptVEvgx8VNotA-16">
          <mxGeometry relative="1" as="geometry" />
        </mxCell>
        <mxCell id="Mu3qTkLptVEvgx8VNotA-18" value="showEditメソッドの実行" style="edgeLabel;resizable=0;html=1;align=left;verticalAlign=bottom;" connectable="0" vertex="1" parent="Mu3qTkLptVEvgx8VNotA-16">
          <mxGeometry x="-1" relative="1" as="geometry" />
        </mxCell>
        <mxCell id="Mu3qTkLptVEvgx8VNotA-19" value="&quot;workitem/workItemEdit&quot;を呼出" style="edgeLabel;resizable=0;html=1;align=right;verticalAlign=bottom;" connectable="0" vertex="1" parent="Mu3qTkLptVEvgx8VNotA-16">
          <mxGeometry x="1" relative="1" as="geometry" />
        </mxCell>
        <mxCell id="Mu3qTkLptVEvgx8VNotA-20" value="" style="curved=1;endArrow=classic;html=1;fillColor=#33001A;exitX=1;exitY=0.5;exitDx=0;exitDy=0;entryX=1;entryY=0.5;entryDx=0;entryDy=0;" edge="1" parent="1" source="Mu3qTkLptVEvgx8VNotA-2" target="Mu3qTkLptVEvgx8VNotA-3">
          <mxGeometry width="50" height="50" relative="1" as="geometry">
            <mxPoint x="530" y="530" as="sourcePoint" />
            <mxPoint x="580" y="480" as="targetPoint" />
            <Array as="points">
              <mxPoint x="420" y="390" />
              <mxPoint x="410" y="680" />
            </Array>
          </mxGeometry>
        </mxCell>
        <mxCell id="Mu3qTkLptVEvgx8VNotA-21" value="&lt;font style=&quot;font-size: 20px&quot;&gt;画面遷移&lt;/font&gt;" style="text;html=1;strokeColor=none;fillColor=none;align=center;verticalAlign=middle;whiteSpace=wrap;rounded=0;" vertex="1" parent="1">
          <mxGeometry x="430" y="480" width="20" height="50" as="geometry" />
        </mxCell>
        <mxCell id="Mu3qTkLptVEvgx8VNotA-22" value="workItemEdit.ftl" style="rounded=0;whiteSpace=wrap;html=1;" vertex="1" parent="1">
          <mxGeometry x="880" y="80" width="240" height="120" as="geometry" />
        </mxCell>
        <mxCell id="Mu3qTkLptVEvgx8VNotA-23" value="workItemList.ftl" style="rounded=0;whiteSpace=wrap;html=1;" vertex="1" parent="1">
          <mxGeometry x="880" y="800" width="240" height="120" as="geometry" />
        </mxCell>
        <mxCell id="Mu3qTkLptVEvgx8VNotA-24" value="dataEditing.js" style="shape=process;whiteSpace=wrap;html=1;backgroundOutline=1;" vertex="1" parent="1">
          <mxGeometry x="880" y="560" width="240" height="120" as="geometry" />
        </mxCell>
        <mxCell id="Mu3qTkLptVEvgx8VNotA-25" value="Label" style="endArrow=classic;html=1;exitX=0.25;exitY=1;exitDx=0;exitDy=0;entryX=0.25;entryY=0;entryDx=0;entryDy=0;" edge="1" parent="1" source="Mu3qTkLptVEvgx8VNotA-22" target="Mu3qTkLptVEvgx8VNotA-7">
          <mxGeometry relative="1" as="geometry">
            <mxPoint x="930" y="240" as="sourcePoint" />
            <mxPoint x="970" y="310" as="targetPoint" />
          </mxGeometry>
        </mxCell>
        <mxCell id="Mu3qTkLptVEvgx8VNotA-26" value="&lt;div&gt;&amp;lt;#assign contentFooter&amp;gt;&lt;/div&gt;&lt;div&gt;&amp;nbsp; &amp;nbsp; &amp;lt;@component.updateWorkItemPanel object=&quot;workItem&quot; formId=&quot;workItemForm&quot;&amp;gt;&amp;lt;/@component.updateWorkItemPanel&amp;gt;&lt;/div&gt;&lt;div&gt;&amp;lt;/#assign&amp;gt;&lt;/div&gt;" style="edgeLabel;resizable=0;html=1;align=center;verticalAlign=middle;" connectable="0" vertex="1" parent="Mu3qTkLptVEvgx8VNotA-25">
          <mxGeometry relative="1" as="geometry" />
        </mxCell>
        <mxCell id="Mu3qTkLptVEvgx8VNotA-27" value="保存ボタン押下" style="edgeLabel;resizable=0;html=1;align=left;verticalAlign=bottom;" connectable="0" vertex="1" parent="Mu3qTkLptVEvgx8VNotA-25">
          <mxGeometry x="-1" relative="1" as="geometry" />
        </mxCell>
        <mxCell id="Mu3qTkLptVEvgx8VNotA-28" value="component.ftlを呼出" style="edgeLabel;resizable=0;html=1;align=right;verticalAlign=bottom;" connectable="0" vertex="1" parent="Mu3qTkLptVEvgx8VNotA-25">
          <mxGeometry x="1" relative="1" as="geometry" />
        </mxCell>
        <mxCell id="Mu3qTkLptVEvgx8VNotA-29" value="Label" style="endArrow=classic;html=1;entryX=0.25;entryY=0;entryDx=0;entryDy=0;exitX=0.25;exitY=1;exitDx=0;exitDy=0;" edge="1" parent="1" source="Mu3qTkLptVEvgx8VNotA-7" target="Mu3qTkLptVEvgx8VNotA-24">
          <mxGeometry relative="1" as="geometry">
            <mxPoint x="970" y="460" as="sourcePoint" />
            <mxPoint x="960" y="520" as="targetPoint" />
            <Array as="points" />
          </mxGeometry>
        </mxCell>
        <mxCell id="Mu3qTkLptVEvgx8VNotA-30" value="&lt;div style=&quot;text-align: left&quot;&gt;&lt;div&gt;&amp;lt;button class=&quot;btn btn_save_data&quot; id=&quot;saveButton&quot;&lt;/div&gt;&lt;div&gt;&lt;span&gt;	&lt;/span&gt;data-form_id=&quot;${formId}&quot; ${PermissionUtil.getAcessRightItem(PermissionId.ID_SAVE)} ${editButtonHTMLDisable}&amp;gt;&lt;/div&gt;&lt;div&gt;&lt;span&gt;	&lt;/span&gt;&amp;lt;@spring.message code=&#39;button.saveTemplate&#39;/&amp;gt;&lt;/div&gt;&lt;div&gt;&amp;lt;/button&amp;gt;&lt;/div&gt;&lt;/div&gt;" style="edgeLabel;resizable=0;html=1;align=center;verticalAlign=middle;" connectable="0" vertex="1" parent="Mu3qTkLptVEvgx8VNotA-29">
          <mxGeometry relative="1" as="geometry" />
        </mxCell>
        <mxCell id="Mu3qTkLptVEvgx8VNotA-31" value="IDがsaveButtonのタグを実行" style="edgeLabel;resizable=0;html=1;align=left;verticalAlign=bottom;" connectable="0" vertex="1" parent="Mu3qTkLptVEvgx8VNotA-29">
          <mxGeometry x="-1" relative="1" as="geometry" />
        </mxCell>
        <mxCell id="Mu3qTkLptVEvgx8VNotA-32" value="dataEditing.jsを呼出" style="edgeLabel;resizable=0;html=1;align=right;verticalAlign=bottom;" connectable="0" vertex="1" parent="Mu3qTkLptVEvgx8VNotA-29">
          <mxGeometry x="1" relative="1" as="geometry" />
        </mxCell>
        <mxCell id="Mu3qTkLptVEvgx8VNotA-33" value="Label" style="endArrow=classic;html=1;exitX=0.25;exitY=1;exitDx=0;exitDy=0;entryX=0.25;entryY=0;entryDx=0;entryDy=0;" edge="1" parent="1" source="Mu3qTkLptVEvgx8VNotA-24" target="Mu3qTkLptVEvgx8VNotA-23">
          <mxGeometry relative="1" as="geometry">
            <mxPoint x="1290" y="640" as="sourcePoint" />
            <mxPoint x="1410" y="840" as="targetPoint" />
            <Array as="points" />
          </mxGeometry>
        </mxCell>
        <mxCell id="Mu3qTkLptVEvgx8VNotA-34" value="&lt;div style=&quot;text-align: left&quot;&gt;window.location.href = window.baseUrl + &quot;/workItem/&quot;;&lt;/div&gt;" style="edgeLabel;resizable=0;html=1;align=center;verticalAlign=middle;" connectable="0" vertex="1" parent="Mu3qTkLptVEvgx8VNotA-33">
          <mxGeometry relative="1" as="geometry" />
        </mxCell>
        <mxCell id="Mu3qTkLptVEvgx8VNotA-35" value="&quot;workitem/&quot;を呼出" style="edgeLabel;resizable=0;html=1;align=right;verticalAlign=bottom;" connectable="0" vertex="1" parent="Mu3qTkLptVEvgx8VNotA-33">
          <mxGeometry x="1" relative="1" as="geometry" />
        </mxCell>
        <mxCell id="Mu3qTkLptVEvgx8VNotA-36" value="" style="curved=1;endArrow=classic;html=1;fillColor=#33001A;exitX=1;exitY=0.5;exitDx=0;exitDy=0;entryX=1;entryY=0.5;entryDx=0;entryDy=0;" edge="1" parent="1" source="Mu3qTkLptVEvgx8VNotA-22" target="Mu3qTkLptVEvgx8VNotA-23">
          <mxGeometry width="50" height="50" relative="1" as="geometry">
            <mxPoint x="1290" y="530" as="sourcePoint" />
            <mxPoint x="1340" y="480" as="targetPoint" />
            <Array as="points">
              <mxPoint x="1290" y="400" />
              <mxPoint x="1240" y="680" />
            </Array>
          </mxGeometry>
        </mxCell>
        <mxCell id="Mu3qTkLptVEvgx8VNotA-37" value="&lt;font style=&quot;font-size: 20px&quot;&gt;画面遷移&lt;/font&gt;" style="text;html=1;strokeColor=none;fillColor=none;align=center;verticalAlign=middle;whiteSpace=wrap;rounded=0;" vertex="1" parent="1">
          <mxGeometry x="1280" y="480" width="20" height="50" as="geometry" />
        </mxCell>
        <mxCell id="Mu3qTkLptVEvgx8VNotA-38" value="&lt;font style=&quot;font-size: 20px&quot;&gt;&lt;b&gt;ワークアイテム一覧画面&lt;/b&gt;&lt;/font&gt;" style="text;html=1;strokeColor=none;fillColor=none;align=center;verticalAlign=middle;whiteSpace=wrap;rounded=0;" vertex="1" parent="1">
          <mxGeometry x="120" y="100" width="240" height="20" as="geometry" />
        </mxCell>
        <mxCell id="Mu3qTkLptVEvgx8VNotA-39" value="&lt;font style=&quot;font-size: 20px&quot;&gt;&lt;b&gt;データ編集画面&lt;/b&gt;&lt;/font&gt;" style="text;html=1;strokeColor=none;fillColor=none;align=center;verticalAlign=middle;whiteSpace=wrap;rounded=0;" vertex="1" parent="1">
          <mxGeometry x="120" y="820" width="240" height="20" as="geometry" />
        </mxCell>
        <mxCell id="Mu3qTkLptVEvgx8VNotA-40" value="&lt;font style=&quot;font-size: 20px&quot;&gt;&lt;b&gt;データ編集画面&lt;/b&gt;&lt;/font&gt;" style="text;html=1;strokeColor=none;fillColor=none;align=center;verticalAlign=middle;whiteSpace=wrap;rounded=0;" vertex="1" parent="1">
          <mxGeometry x="880" y="100" width="240" height="20" as="geometry" />
        </mxCell>
        <mxCell id="Mu3qTkLptVEvgx8VNotA-41" value="&lt;font style=&quot;font-size: 20px&quot;&gt;&lt;b&gt;ワークアイテム一覧画面&lt;/b&gt;&lt;/font&gt;" style="text;html=1;strokeColor=none;fillColor=none;align=center;verticalAlign=middle;whiteSpace=wrap;rounded=0;" vertex="1" parent="1">
          <mxGeometry x="880" y="820" width="240" height="20" as="geometry" />
        </mxCell>
        <mxCell id="Mu3qTkLptVEvgx8VNotA-42" value="DB" style="shape=cylinder3;whiteSpace=wrap;html=1;boundedLbl=1;backgroundOutline=1;size=15;" vertex="1" parent="1">
          <mxGeometry x="600" y="570" width="120" height="160" as="geometry" />
        </mxCell>
        <mxCell id="Mu3qTkLptVEvgx8VNotA-43" value="Label" style="endArrow=classic;html=1;exitX=0;exitY=0.75;exitDx=0;exitDy=0;entryX=1;entryY=0.5;entryDx=0;entryDy=0;entryPerimeter=0;" edge="1" parent="1" source="Mu3qTkLptVEvgx8VNotA-24" target="Mu3qTkLptVEvgx8VNotA-42">
          <mxGeometry relative="1" as="geometry">
            <mxPoint x="830" y="610" as="sourcePoint" />
            <mxPoint x="830" y="770" as="targetPoint" />
            <Array as="points" />
          </mxGeometry>
        </mxCell>
        <mxCell id="Mu3qTkLptVEvgx8VNotA-44" value="&lt;div style=&quot;text-align: left&quot;&gt;編集した内容の格納&lt;/div&gt;" style="edgeLabel;resizable=0;html=1;align=center;verticalAlign=middle;" connectable="0" vertex="1" parent="Mu3qTkLptVEvgx8VNotA-43">
          <mxGeometry relative="1" as="geometry" />
        </mxCell>
        <mxCell id="Mu3qTkLptVEvgx8VNotA-45" value="saveTemplateのfunctionを実行" style="edgeLabel;resizable=0;html=1;align=left;verticalAlign=bottom;" connectable="0" vertex="1" parent="Mu3qTkLptVEvgx8VNotA-43">
          <mxGeometry x="-1" relative="1" as="geometry">
            <mxPoint y="20" as="offset" />
          </mxGeometry>
        </mxCell>
        <mxCell id="Mu3qTkLptVEvgx8VNotA-46" value="処理追加&lt;br&gt;&lt;span&gt;1. dataEditing.jsに&lt;br&gt;errorInterfaceのfunction追加&lt;br&gt;&lt;/span&gt;&lt;br&gt;2. dataEditing.jsのsaveTemplate関数内で&lt;br&gt;errorInterface関数を呼出処理を追加&lt;br&gt;&amp;nbsp;2.1. errorCheckを実行した後、&lt;br&gt;&amp;nbsp; &amp;nbsp; &amp;nbsp; &amp;nbsp; saveTemplateの処理を行うこと&lt;br&gt;&amp;nbsp;2.2. saveTemplate関数の処理後、&lt;br&gt;&amp;nbsp; &amp;nbsp; &amp;nbsp; &amp;nbsp; workItem画面を呼出する処理は同様&lt;br&gt;" style="text;html=1;strokeColor=#b85450;fillColor=#f8cecc;align=left;verticalAlign=middle;whiteSpace=wrap;rounded=0;" vertex="1" parent="1">
          <mxGeometry x="1320" y="540" width="240" height="160" as="geometry" />
        </mxCell>
        <mxCell id="Mu3qTkLptVEvgx8VNotA-47" value="" style="endArrow=none;dashed=1;html=1;fontColor=#FF0000;entryX=0;entryY=0.5;entryDx=0;entryDy=0;exitX=1;exitY=0.5;exitDx=0;exitDy=0;" edge="1" parent="1" source="Mu3qTkLptVEvgx8VNotA-24" target="Mu3qTkLptVEvgx8VNotA-46">
          <mxGeometry width="50" height="50" relative="1" as="geometry">
            <mxPoint x="1200" y="740" as="sourcePoint" />
            <mxPoint x="1250" y="690" as="targetPoint" />
          </mxGeometry>
        </mxCell>
        <mxCell id="Mu3qTkLptVEvgx8VNotA-48" value="案②&lt;br&gt;処理追加&lt;br&gt;&lt;span&gt;1. workItemServiceに&lt;br&gt;errorCheckメソッドを追加&lt;br&gt;2.&amp;nbsp;&lt;/span&gt;workItemServiceのgetWorkItemStructureSessionを&lt;br&gt;実行する際、&lt;br&gt;&lt;span&gt;上記のerrorCheckメソッドを実行する&lt;br&gt;3. DataEditingController.javaには&lt;br&gt;errorCheck済みのworkitemを渡す&lt;/span&gt;" style="text;html=1;strokeColor=#b85450;fillColor=#f8cecc;align=left;verticalAlign=middle;whiteSpace=wrap;rounded=0;" vertex="1" parent="1">
          <mxGeometry x="440" y="760" width="240" height="160" as="geometry" />
        </mxCell>
        <mxCell id="Mu3qTkLptVEvgx8VNotA-49" value="" style="endArrow=none;dashed=1;html=1;fontColor=#FF0000;exitX=1;exitY=0.5;exitDx=0;exitDy=0;entryX=0.5;entryY=0;entryDx=0;entryDy=0;" edge="1" parent="1" source="Mu3qTkLptVEvgx8VNotA-6" target="Mu3qTkLptVEvgx8VNotA-48">
          <mxGeometry width="50" height="50" relative="1" as="geometry">
            <mxPoint x="320" y="840" as="sourcePoint" />
            <mxPoint x="410" y="790" as="targetPoint" />
          </mxGeometry>
        </mxCell>
      </root>
    </mxGraphModel>
  </diagram>
</mxfile>
